inDegrees=no
num_controls=7
num_derivatives=13
num_iterations=58
num_multipliers=7
num_parameters=0
num_slacks=7
num_states=26
objective=0.449307
objective_accelerations=0.051370
objective_balance=0.006555
objective_effort=0.035529
objective_height=0.350912
objective_ligament=0.004941
solver_duration=855.047093
status=Solve_Succeeded
success=true
DataType=double
version=3
OpenSimVersion=4.5
endheader
time	/jointset/ground_pelvis/pelvis_tilt/value	/jointset/ground_pelvis/pelvis_tx/value	/jointset/ground_pelvis/pelvis_ty/value	/jointset/hip_l/hip_flexion_l/value	/jointset/hip_l/hip_adduction_l/value	/jointset/hip_l/hip_rotation_l/value	/jointset/back/lumbar_extension/value	/jointset/patellofemoral_l/patellar_flexion_l/value	/jointset/knee_l/knee_flexion_l/value	/jointset/knee_l/knee_adduction_l/value	/jointset/knee_l/knee_rotation_l/value	/jointset/ankle_l/ankle_angle_l/value	/jointset/subtalar_l/subtalar_angle_l/value	/jointset/ground_pelvis/pelvis_tilt/speed	/jointset/ground_pelvis/pelvis_tx/speed	/jointset/ground_pelvis/pelvis_ty/speed	/jointset/hip_l/hip_flexion_l/speed	/jointset/hip_l/hip_adduction_l/speed	/jointset/hip_l/hip_rotation_l/speed	/jointset/back/lumbar_extension/speed	/jointset/patellofemoral_l/patellar_flexion_l/speed	/jointset/knee_l/knee_flexion_l/speed	/jointset/knee_l/knee_adduction_l/speed	/jointset/knee_l/knee_rotation_l/speed	/jointset/ankle_l/ankle_angle_l/speed	/jointset/subtalar_l/subtalar_angle_l/speed	/forceset/tau_hip_flexion_l	/forceset/tau_hip_adduction_l	/forceset/tau_hip_rotation_l	/forceset/tau_knee_flexion_l	/forceset/tau_ankle_angle_l	/forceset/tau_subtalar_angle_l	/forceset/tau_lumbar_extension	lambda_cid13_p0	lambda_cid13_p1	lambda_cid13_p2	lambda_cid13_p3	lambda_cid13_p4	lambda_cid13_p5	lambda_cid14_p0	/jointset/ground_pelvis/pelvis_tilt/accel	/jointset/ground_pelvis/pelvis_tx/accel	/jointset/ground_pelvis/pelvis_ty/accel	/jointset/hip_l/hip_flexion_l/accel	/jointset/hip_l/hip_adduction_l/accel	/jointset/hip_l/hip_rotation_l/accel	/jointset/back/lumbar_extension/accel	/jointset/patellofemoral_l/patellar_flexion_l/accel	/jointset/knee_l/knee_flexion_l/accel	/jointset/knee_l/knee_adduction_l/accel	/jointset/knee_l/knee_rotation_l/accel	/jointset/ankle_l/ankle_angle_l/accel	/jointset/subtalar_l/subtalar_angle_l/accel	gamma_cid13_p0	gamma_cid13_p1	gamma_cid13_p2	gamma_cid13_p3	gamma_cid13_p4	gamma_cid13_p5	gamma_cid14_p0
0	-0.1591005435677439	0.05817828609420495	0.8979632333448654	0.3774924667018715	-0.2596525315198065	-0.2641726903633192	-0.01265067647494873	0.03223648243719851	0.03223648243721463	-0.1745328048837905	0.1661326581767151	-0.04231377076293093	-0.009879221563459838	0	0	0	0	0	0	0	0	0	0	0	0	0	0.1209515243980784	-0.01801771363700177	-0.04440075367394692	-0.2624948095785777	0.2629565542126406	-0.08145747378014452	-0.07131241548267621	40.7031544190689	20.91323967968303	4.643958702263588	5.48768135657847	-590.8506975308769	-30.63411211745609	-38.81266873510742	-4.608570695865785	-2.064529821695865	-1.14365481541248	13.07044472010638	-1.104368041514346	2.996205755232456	-3.828793804950529	9.611508836302599	9.611508836304433	0.4218353350851785	0.31117966928477	1.332522321212949	-0.8263356721353533	8.995398780727027e-08	9.261150974103056e-08	-2.968057572230196e-07	-1.680840604304072e-08	3.059569873774264e-07	2.565632692174548e-07	5.291352481229717e-08
0.01	-0.1593148991281679	0.05807866823708283	0.8979082536067546	0.3781169985631192	-0.2597099931216047	-0.2640188996638078	-0.01286144480371536	0.03270497697479673	0.03270497697482584	-0.1745185556689029	0.1661408099819366	-0.04224710082733502	-0.009922750510727836	-0.04175009010990243	-0.01959743532543166	-0.01086044868038468	0.1229611375231418	-0.01168938191120831	0.03104572993480977	-0.0435925227383992	0.09316730002696204	0.09316730002696072	0.002345951142816082	0.001215073303008917	0.01357070042126167	-0.008847360313804953	0.1320528665507248	-0.03192184670927531	-0.04767296207354448	-0.2862880332129584	0.299563028988065	-0.08045068587723965	-0.07865941771159057	52.62199399414017	18.78017950481054	4.537305511524048	-5.171885357174662	-591.4746011752292	-36.73307306855532	-38.8263977346626	-3.790065144494529	-1.858433328632606	-1.036853861658901	11.61717838768761	-1.230752896337632	3.201944791623781	-4.840310061585342	9.089588877092435	9.089588877090822	0.06536346851173747	-0.03557200098676842	1.404855968165832	-0.9351526975316635	-4.194870857753555e-08	1.037909351831338e-07	6.398409608916155e-08	2.57712728703714e-08	-1.567709917997693e-08	5.522707079260863e-08	-1.248828581270114e-08
0.02	-0.1599131229847441	0.05779285943857888	0.8977487465883827	0.3799127878239796	-0.2598902544685998	-0.2635460140292789	-0.01355130407037611	0.03408919417104424	0.03408919417105351	-0.1744959692500979	0.1661486638878022	-0.04203762147441067	-0.01005899635843919	-0.07677365925794537	-0.03723818827636206	-0.02090545605231646	0.2342514798169427	-0.02455994903902033	0.06381898703042548	-0.09581818760911999	0.183144531701971	0.1831445317019746	0.001667440870901239	-5.95798658396874e-05	0.02856188346594845	-0.0185433800887585	0.1431542087075522	-0.04582597978147149	-0.05094517047245985	-0.3100812568457557	0.3361695037639037	-0.0794438979741745	-0.08600641993723541	64.62242492866005	16.6342715919579	4.43106206940569	-15.98417597667905	-590.8908165932214	-42.71656318012476	-38.86619650401226	-3.263266503495913	-1.673193346793411	-0.9805665537218811	10.73628567423748	-1.340605084835579	3.341711187393885	-5.555422231416007	8.973495165911949	8.97349516591502	-0.1830569478619433	-0.186765625086839	1.616618845900585	-0.9960675643649451	-1.738514049623414e-07	1.149703606252371e-07	4.247739494013427e-07	6.835095178378351e-08	-3.373111857373802e-07	-1.461091276322375e-07	-7.789009643769945e-08
0.03	-0.1608403808576081	0.05733731367210385	0.8974913972637233	0.3827830382145756	-0.2602002194436637	-0.2627434272349109	-0.01478305990707633	0.03636059308731448	0.03636059308725736	-0.1744859004674178	0.1661382195302902	-0.04167385785466354	-0.01029223528338982	-0.1087546090088589	-0.05385443230771039	-0.03056893648163933	0.3397854569003864	-0.03713909651777349	0.09631510952572916	-0.1496685874002953	0.2709276666803273	0.2709276666803349	0.0007826498300345546	-0.001756498479400099	0.04415523977753105	-0.02782429289284069	0.1321739097808899	-0.038849113420668	-0.04869456084585813	-0.2950710742956313	0.3155348249669657	-0.07725571384766045	-0.07763450772941925	58.04817674320058	16.6862686007313	4.59271059486405	-11.68679983222504	-591.1831057269454	-41.01944812488049	-38.93004792332218	-3.177034083110173	-1.653346176771283	-0.9599866895631883	10.45995474664347	-1.172533458261366	3.146007646192878	-5.170190005880058	8.6496007777153	8.649600777713857	0.02432800242650817	-0.1202999641376694	1.525341944496276	-0.8521524605425778	-1.211997763586219e-07	1.727052695811777e-07	2.091365322692782e-07	6.828671251312271e-08	-3.307986961271878e-07	-8.570680233016337e-09	-3.523694818543479e-08
0.04	-0.1620897532022945	0.05671610421622819	0.8971372635543698	0.3867082285801581	-0.2606271686692962	-0.2616273902424225	-0.01652738797229647	0.0395035989759875	0.0395035989759976	-0.1744715759581415	0.16611897698988	-0.04115523108764429	-0.01060989320080373	-0.1411965536489647	-0.07037092615648595	-0.04026233299116203	0.4452394748336279	-0.04795679915118238	0.1265090266448455	-0.1983326333082211	0.3574659262154638	0.3574659262154501	0.002518586174160363	-0.001819216478885919	0.05953451291756113	-0.03542717858144511	0.1211936108524116	-0.03187224705997178	-0.04644395121845103	-0.2800608917462982	0.2949001461698251	-0.07506752972130748	-0.06926259552303793	51.55040104211893	16.73100466872334	4.748519735980315	-7.547547342361378	-590.356750251342	-39.21117161751333	-39.01700745902697	-3.355465481336401	-1.653243310276836	-0.9865497697618192	10.72029384419636	-0.98831611576712	2.88127011215668	-4.518151454767343	8.724520077267981	8.724520077265975	0.3410885291358203	0.1400744977279421	1.573802211592513	-0.6604621412692117	-6.474290394070585e-08	2.314000854136923e-07	-1.838598322246159e-08	6.734321719742946e-08	-3.175202977300345e-07	1.359548732656702e-07	9.644137363268328e-09
0.05	-0.1636634384256209	0.0559312024071997	0.8966860626942404	0.3916806548399326	-0.2611572444507904	-0.2602169277502686	-0.01873743571176728	0.04350116010465855	0.0435011601046486	-0.1744351202134959	0.1661022863210539	-0.04048545565683328	-0.01099930214643504	-0.173333584719591	-0.0864922562170107	-0.04997245237746732	0.548457930534575	-0.0581537426675376	0.1556126700172787	-0.2433559943601239	0.4413209216264322	0.4413209216263945	0.004336585124018238	-0.001770081789574738	0.07420560406192724	-0.04260390409528067	0.1155174759365486	-0.0303322913573176	-0.04560308780006698	-0.2758950252510812	0.2898158150665287	-0.07351081692598223	-0.06459652628907142	50.06576300959507	16.31489061599323	4.814838854762928	-7.258855982626155	-589.4753674089595	-39.08741499830616	-39.12553897899009	-3.111786885368956	-1.573987472836069	-0.9624984211424813	10.00443706991233	-1.049704979724636	2.929303811845748	-4.446290399637816	8.107180298584272	8.107180298581969	0.03678751940094872	-0.1003261140371331	1.381512973774968	-0.7687037457858938	-1.569938665134603e-07	1.373243299927565e-07	2.81974828776362e-07	1.022409079260817e-07	-4.88282435960414e-07	-1.965878922756356e-08	-5.181151668019009e-08
0.06	-0.1655522869526294	0.05498860537379276	0.8961379095606349	0.3976616287842065	-0.261792153969482	-0.2585145503519934	-0.02138808945557065	0.04831550939248821	0.04831550939249921	-0.1743935580910973	0.1660785551854932	-0.0396754192329865	-0.01146496354507349	-0.2042292144082348	-0.1019099710321761	-0.05965278768644236	0.6469490117102387	-0.06892354659009875	0.184892007872116	-0.2864538341817346	0.5208235580603705	0.5208235580603192	0.003539861733471514	-0.003227309843093651	0.08758671152302104	-0.05067766918292545	0.1098413410209273	-0.02879233565471035	-0.04476222438105646	-0.2717291587559769	0.2847314839631639	-0.0719541041307266	-0.05993045705481648	48.64667653130441	15.89171217945632	4.877246232716518	-7.108826927708148	-587.6347080596558	-38.86289818516085	-39.25301120429235	-3.107185204941658	-1.512520261203093	-0.9805929542957302	9.774818939138965	-1.102888197008584	2.916409008637772	-4.13304720870997	7.854048281861963	7.854048281861993	-0.1818559389456098	-0.1611980508382475	1.315805474940337	-0.8398700560307985	-2.555062116121376e-07	3.681612946641223e-08	6.045623071958409e-07	1.386477012250221e-07	-6.667936494172158e-07	-1.879098923941413e-07	-1.17744507127529e-07
0.07000000000000001	-0.167742431364998	0.05389454750995622	0.8954931270404833	0.4046090794782464	-0.2625323575239444	-0.2565206683659119	-0.02446412290953193	0.05391143276471684	0.05391143276462658	-0.1743612037085685	0.1660370571681486	-0.03873366725149275	-0.01200967593022035	-0.233394254662055	-0.1168595028187555	-0.06928785955963443	0.7421567616253097	-0.07867863228301653	0.2136724531458497	-0.328886205060436	0.5983781073237801	0.5983781073237366	0.003675915152264025	-0.00491028810634124	0.100952426807421	-0.0577969879473823	0.1038786048715098	-0.02581587628441246	-0.04377832701384656	-0.2665555520874712	0.2775954029335485	-0.070308707013926	-0.05555125023120672	46.54701016730559	15.53227525696903	4.948801287614597	-6.26541647900279	-585.9929300428329	-38.43602409722685	-39.3965725431422	-2.760371531955646	-1.479826624134023	-0.9527213085728723	9.336064281207049	-0.8460888654967579	2.826969599896073	-4.318334297049162	7.708731239389309	7.708731239390874	0.2231412717056967	-0.1476503396709931	1.375247250834534	-0.5778637992440737	-1.999543887409864e-07	2.869682696215864e-07	3.076168929863084e-07	1.418742259655879e-07	-6.239264341609736e-07	3.276092413062783e-08	-4.956245858794222e-08
0.08	-0.1702120677990863	0.05265226293090972	0.8947524424006521	0.4124970699241208	-0.2633569659573563	-0.2542453604644614	-0.02796848052621844	0.06028341622760429	0.06028341622760543	-0.1743051277341115	0.1659835688432692	-0.03765259957802353	-0.01261156170553015	-0.2601276187703044	-0.1315553140741668	-0.07883321162243971	0.835056962080951	-0.08580452237850004	0.2411771909458093	-0.3721186667233483	0.6760355762195933	0.6760355762195724	0.008284180147632634	-0.005625371393747791	0.1154498499176808	-0.0621123472154679	0.09791586872137216	-0.02283941691403708	-0.04279442964552312	-0.26138194541923	0.2704593219039592	-0.06866330989705861	-0.05117204340832433	44.50888332423025	15.16866403488973	5.013484359567884	-5.547385981567115	-583.4457860648449	-37.91558832150628	-39.55414848755782	-2.620849975829102	-1.461776154967725	-0.9626489922183197	9.313309047252385	-0.5770490775219245	2.661267513883241	-4.293065365553093	7.874632208342658	7.874632208345627	0.7125863763692214	0.03238094432975766	1.542147040114486	-0.2790781567562591	-1.344629421298463e-07	5.597436575626647e-07	-2.929838526380518e-08	1.429600882185166e-07	-5.667767396329221e-07	2.785234774096772e-07	2.727217311209131e-08
0.09	-0.1729428398363967	0.05126514599354104	0.8939159765549418	0.4213018652867953	-0.264246258262486	-0.2517033567397802	-0.03189869127878778	0.0674247124753115	0.06742471247533761	-0.1741957361002858	0.1659276881278524	-0.03642607258356347	-0.01325019244238468	-0.2861749789059476	-0.1457395029492589	-0.08851388517563356	0.9253952004736864	-0.09228853478367673	0.2668637038469733	-0.4130557949699122	0.7514402376465165	0.7514402376465174	0.01280366041222522	-0.005428061812717722	0.1295210931700472	-0.06592456709734132	0.09013467669224301	-0.02054360770930716	-0.04168504050471318	-0.2558948933836021	0.2631157953950076	-0.06663431259110116	-0.0447287963891358	42.38593746609693	14.67064902249831	5.079785095494869	-4.886836490565783	-581.5191271309284	-37.45934800706556	-39.72341984161396	-2.618912108333116	-1.377426072029531	-0.9789781168477462	8.818028375829181	-0.7193144902233048	2.468397834614489	-3.863883233357394	7.255861062151313	7.255861062152613	0.2031331911140367	0.03185086658085495	1.289436621476479	-0.478990577282228	-1.612361005016843e-07	2.714785341739047e-07	2.094334683605653e-07	1.350875104158237e-07	-6.272875227080561e-07	8.175406624348672e-08	-2.787218019352364e-08
